# xmcd
#
# Track frame offsets:
#	182
#	18185
#	50940
#	69220
#	104197
#	139185
#
# Disc length: 2229 seconds
# Revision: 0
# Processed by: cddbd v1.5.2PL0 Copyright (c) Steve Scherf et al.
# Submitted via: dBpowerAMP V12.0
#
DISCID=5508b306
DTITLE=Groove Collective - Whatchugot - Buddha Head
DYEAR=1994
DGENRE=House
TTITLE0=Whatchugot [Radio Mix]
TTITLE1=Whatchugot [Alternate Vocal Mix]
TTITLE2=Buddha Head [Album Version]
TTITLE3=Whatchugot [Main Mix]
TTITLE4=Whatchugot [Bass Dub]
TTITLE5=Whatchugot [Album Version]
EXTD=
EXTT0=
EXTT1=
EXTT2=
EXTT3=
EXTT4=
EXTT5=
PLAYORDER=
